<?xml version="1.0" encoding="UTF-8"?>
<svg id="Layer_1" data-name="Layer 1" xmlns="http://www.w3.org/2000/svg" viewBox="0 0 16 14.59">
  <path d="m16,6.42c0-.07,0-.15-.02-.22-.06-.18-.2-.35-.23-.54-.07-.41-.19-.71-.61-.72-.4-.01-.43.18-.77.47,0-.15.02-.31-.02-.45-.11-.34-.17-.74-.39-1-.34-.4-.86-.64-1.05-1.19-.07-.2-.12-.44-.26-.57-.54-.52-1.12-1.04-1.85-1.22-1.06-.62-2.3-.98-3.62-.98C3.22,0,0,3.22,0,7.18c0,2.33,1.12,4.4,2.84,5.72.06.07.11.14.17.2.2.26.75.54.94.44.45-.23.36.08.45.27.02.04.08.06.1.1.25.45.75.3,1.11.47.23.11.5.18.76.2.65.04,1.24-.08,1.76-.57.37-.34.87-.51.97-1.1.03-.16.22-.24.4-.02.08.09.34.13.45.07.35-.2.56-.19.79.2.29.49.68.47,1.04.03.11-.13.27-.22.41-.32.24-.18.51-.34.72-.55.32-.32.46-.74.91-1.01.27-.16.26-.77.37-1.18.09-.32.06-.76.27-.95.24-.22.39-.46.36-.71-.06-.56.09-.81.45-1.07.28-.2.62-.53.71-.87-1.55.03-3.9.02-6.35.22-.29.02-.58.05-.86.08-.28.03-.58.07-.8.14-.12.04-.24-.03-.28-.14-.03-.09,0-.18.06-.23h.01c.12-.1.27-.28.4-.43l.41-.48c.14-.16.27-.32.41-.49.15-.16.28-.32.49-.47.03-.02.07-.02.09,0,0,0,.11.12.13.17.03.06.04.15.04.15v.2s.04.41.04.41c.01.14.01.27.02.41,0,.1,0,.2-.01.31,2.52-.07,4.78-.03,6.24.03ZM7.76,1.55c-1.1.11-.48.88-2.58.69-.04,0-.38-.11-.58.19-.56.5-1.04.42-1.41,1.2-.03.06-.18.04-.26.08-.35.14-.58.36-.51.79.03.18-.01.38-.03.57-.04.55-.85.91-.89,1.46,0,.12-.1.26-.16.35-.22.32-.23.63-.13.85.38-.02.77-.04,1.14-.07,1.01-.07,2.03-.09,3.03-.14.2,0,.39-.02.59-.03l.43-.46.54-.59s.3-.33.32-.38c.02-.04-.29.09-.69.34-.2.14-.33.22-.47.34-.39.4-.62.33-.71.25-.07-.06-.09-.16-.06-.24h0c.06-.21.13-.4.22-.59.08-.19.16-.37.26-.57.1-.19.21-.37.33-.55.12-.17.23-.37.44-.46-.11.18-.18.37-.25.56-.07.19-.13.39-.19.58-.02.09-.05.19-.08.3.22-.21.45-.42.68-.62.23-.21.48-.4.73-.58.13-.09.25-.18.38-.27.13-.09.26-.17.42-.21-.1.13-.21.23-.33.33-.11.1-.23.2-.34.31-.22.21-.43.44-.63.66-.08.09-.17.19-.26.28.07-.03.15-.07.23-.1.1-.04.18-.07.3-.11.06-.02.13-.03.21-.02.08,0,.21.06.26.17,0,0,.04.08-.06.25-.11.18-.45.56-.45.56l-.53.61-.18.2c.64-.04,1.28-.08,1.92-.13,1.01-.08,2.01-.18,3.02-.27h.02c.1,0,.19.08.19.19,0,.09-.06.16-.14.18-.74.22-1.47.34-2.19.53-.35.09-.7.22-1.05.34-.35.12-.69.25-1.04.39-1.36.58-2.66,1.31-3.84,2.19h0s0,0,0,0c-.09.07-.22.05-.29-.05-.06-.08-.05-.19.01-.26.36-.41.73-.8,1.09-1.19l1.1-1.17.34-.36c-.08,0-.17,0-.25.01l-3.03.06c-.37,0-.75.02-1.13.03-.09.43-.14.78-.11,1.11.05.57.46,1.13.53,1.71.02.19.06.36.12.53-.86-1.14-1.37-2.55-1.37-4.09C.4,3.44,3.44.4,7.18.4c.97,0,1.89.2,2.72.57-.7.14-1.57.52-2.14.58Z" style="fill: #252525;"/>
  <path d="m4.51,9.63s-.01.01-.02.02c.84-.5,1.71-.95,2.61-1.32.66-.27,1.32-.51,2.01-.71-.22.02-.44.04-.67.05-.76.05-1.51.1-2.27.13l-.58.64-1.09,1.19Z" style="fill: #252525;"/>
  <path d="m9.43,5.3s0-.04,0-.06c-.06.06-.11.13-.17.2-.13.16-.26.33-.39.49l-.39.5s0,.01-.01.02c.09,0,.18-.02.27-.02.29-.02.59-.03.88-.04.03,0,.07,0,.1,0-.07-.23-.14-.45-.19-.68-.03-.13-.07-.27-.09-.41Z" style="fill: #252525;"/>
</svg>