<?xml version="1.0" encoding="UTF-8"?>
<svg id="Layer_1" data-name="Layer 1" xmlns="http://www.w3.org/2000/svg" viewBox="0 0 29.21 29.21">
  <path d="m29.21,14.59c0,2.45,0,4.89,0,7.34,0,.81-.04,1.61-.15,2.41,0,.06-.02.11-.06.16-.03.04-.05.07-.02.13.04.09-.11.15-.04.25-.1.12-.04.29-.11.43-.07.13-.1.29-.17.42-.1.2-.22.39-.32.59-.15.29-.33.55-.54.8-1,1.18-2.29,1.83-3.82,1.99-.76.08-1.52.1-2.28.1-4.8,0-9.6,0-14.4,0-.82,0-1.63-.01-2.44-.15-1.71-.3-3.05-1.17-3.96-2.66-.5-.81-.74-1.7-.82-2.65C.02,22.97,0,22.2,0,21.43c0-4.7,0-9.4,0-14.1,0-.83.03-1.66.15-2.48.03-.21.11-.42.16-.64.06-.27.16-.53.27-.79.07-.18.18-.34.27-.51.16-.3.35-.57.56-.82.84-1,1.9-1.62,3.17-1.9.65-.14,1.31-.16,1.97-.19.27-.01.53-.02.8-.02,4.85,0,9.69,0,14.54,0,.82,0,1.65.03,2.46.15.48.07.95.21,1.4.41.46.2.89.46,1.28.78.53.44.98.95,1.33,1.54.46.8.71,1.67.78,2.6.06.81.08,1.61.08,2.42,0,2.23,0,4.46,0,6.69Zm-14.15-1.25s0-.08,0-.12c0-.46,0-.93,0-1.39,0-.1-.03-.13-.13-.13-1.02,0-2.05,0-3.07,0-.11,0-.13.03-.13.13,0,3.82,0,7.63,0,11.45,0,.11.03.13.13.13,1.08,0,2.16,0,3.23,0,.2,0,.17.03.17-.16,0-2.02,0-4.04,0-6.06,0-.51.13-.99.41-1.42.1-.16.2-.32.34-.44.19-.16.39-.29.62-.37.53-.2,1.08-.25,1.63-.12.44.11.83.3,1.1.7.13.18.25.37.32.57.13.36.15.73.14,1.11,0,2.02,0,4.04,0,6.06,0,.12.04.14.14.14,1.08,0,2.16,0,3.25,0,.13,0,.17-.02.17-.16,0-2.44,0-4.89,0-7.33,0-.43-.08-.84-.19-1.25-.09-.31-.22-.61-.37-.89-.14-.27-.29-.55-.49-.79-.18-.22-.39-.39-.6-.57-.16-.13-.35-.22-.52-.34-.15-.11-.32-.19-.49-.26-.16-.06-.33-.09-.49-.15-.34-.13-.69-.15-1.04-.18-.7-.05-1.38.07-2.04.32-.23.09-.44.2-.65.31-.33.18-.63.41-.91.66-.19.16-.34.36-.51.56Zm-8.97,4.19c0,1.91,0,3.82,0,5.73,0,.11.03.14.14.14,1.12,0,2.24,0,3.36,0,.11,0,.13-.03.13-.13,0-3.82,0-7.63,0-11.45,0-.11-.03-.13-.13-.13-1.06,0-2.13,0-3.19,0q-.3,0-.3.29c0,1.85,0,3.7,0,5.55Zm-.26-9.7c0,1.17.89,2.11,2.03,2.12,1.18,0,2.12-.9,2.13-2.07,0-1.14-.92-2.07-2.06-2.09-1.1-.01-2.08.88-2.09,2.03Z"/>
</svg>