<?xml version="1.0" encoding="UTF-8"?>
<svg id="Layer_1" data-name="Layer 1" xmlns="http://www.w3.org/2000/svg" viewBox="0 0 29 28.27">
  <path d="m28.92,4.19c-.19-1.01-.65-1.89-1.36-2.63-.46-.48-1-.85-1.6-1.12C25.32.16,24.66,0,23.97,0,17.68,0,11.4,0,5.12,0c-.17,0-.35,0-.52.03-1.15.12-2.15.58-2.99,1.37-.5.46-.88,1.01-1.16,1.63C.16,3.68,0,4.36,0,5.08,0,11.07,0,17.07,0,23.07c0,.15,0,.29.02.44.03.6.18,1.16.42,1.71.25.57.6,1.08,1.04,1.53.46.47.99.83,1.59,1.09.63.27,1.28.43,1.96.43,3.15,0,6.31,0,9.46,0s6.27,0,9.41,0c.24,0,.49-.02.73-.05,1.06-.16,1.98-.61,2.76-1.35.49-.46.87-1,1.14-1.61.3-.66.45-1.35.45-2.08,0-6.01,0-12.02,0-18.04,0-.32-.02-.64-.08-.96Zm-3.93,14.61c0,3.22-2.61,5.83-5.83,5.83h-9.16c-3.22,0-5.83-2.61-5.83-5.83v-9.16c0-3.22,2.61-5.83,5.83-5.83h9.16c3.22,0,5.83,2.61,5.83,5.83v9.16Z"/>
  <path d="m20.58,6.16c-.74,0-1.34.6-1.34,1.34s.6,1.34,1.34,1.34,1.34-.6,1.34-1.34-.6-1.34-1.34-1.34Z"/>
  <path d="m14.5,9.54c-3.09,0-5.6,2.51-5.6,5.6s2.51,5.6,5.6,5.6c3.09,0,5.59-2.51,5.6-5.6,0-3.09-2.51-5.6-5.6-5.6Zm0,9.33c-2.06,0-3.73-1.67-3.73-3.73s1.67-3.73,3.73-3.73c2.06,0,3.73,1.67,3.73,3.73,0,2.06-1.67,3.73-3.73,3.73Z"/>
</svg>