<?xml version="1.0" encoding="UTF-8"?>
<svg id="Layer_1" data-name="Layer 1" xmlns="http://www.w3.org/2000/svg" viewBox="0 0 29 28.27">
  <path d="m18.69,5.61h-8.38c-2.39,0-4.33,1.94-4.33,4.33v8.38c0,2.39,1.94,4.33,4.33,4.33h8.38c2.39,0,4.33-1.94,4.33-4.33v-8.38c0-2.39-1.94-4.33-4.33-4.33Zm-4.11,13.7c-2.85,0-5.17-2.32-5.17-5.17s2.32-5.17,5.17-5.17,5.17,2.32,5.17,5.17-2.32,5.17-5.17,5.17Zm5.47-9.46c-.68,0-1.23-.55-1.23-1.23s.55-1.23,1.23-1.23,1.23.55,1.23,1.23-.55,1.23-1.23,1.23Z"/>
  <path d="m14.59,10.82c-1.83,0-3.31,1.49-3.31,3.31s1.49,3.31,3.31,3.31,3.31-1.49,3.31-3.31-1.49-3.31-3.31-3.31Z"/>
  <path d="m28.92,4.19c-.19-1.01-.65-1.89-1.36-2.63-.46-.48-1-.85-1.6-1.12C25.32.16,24.66,0,23.97,0,17.68,0,11.4,0,5.12,0c-.17,0-.35,0-.52.03-1.15.12-2.15.58-2.99,1.37-.5.46-.88,1.01-1.16,1.63C.16,3.68,0,4.36,0,5.08,0,11.07,0,17.07,0,23.07c0,.15,0,.29.02.44.03.6.18,1.16.42,1.71.25.57.6,1.08,1.04,1.53.46.47.99.83,1.59,1.09.63.27,1.28.43,1.96.43,3.15,0,6.31,0,9.46,0s6.27,0,9.41,0c.24,0,.49-.02.73-.05,1.06-.16,1.98-.61,2.76-1.35.49-.46.87-1,1.14-1.61.3-.66.45-1.35.45-2.08,0-6.01,0-12.02,0-18.04,0-.32-.02-.64-.08-.96Zm-3.92,14.14c0,3.48-2.83,6.31-6.31,6.31h-8.38c-3.48,0-6.31-2.83-6.31-6.31v-8.38c0-3.48,2.83-6.31,6.31-6.31h8.38c3.48,0,6.31,2.83,6.31,6.31v8.38Z"/>
</svg>