<?xml version="1.0" encoding="UTF-8"?>
<svg id="Layer_1" data-name="Layer 1" xmlns="http://www.w3.org/2000/svg" viewBox="0 0 29 28.27">
  <path d="m15.11,16.2c-.33.29-.88.29-1.21,0l-2.02-1.73-5.44,6.21h16.12l-5.44-6.21-2.02,1.73Z"/>
  <polygon points="22.29 7.59 6.71 7.59 14.5 14.27 22.29 7.59"/>
  <polygon points="5.24 8.78 5.24 19.23 10.46 13.26 5.24 8.78"/>
  <polygon points="23.76 19.23 23.76 8.78 18.54 13.26 23.76 19.23"/>
  <path d="m28.92,4.19c-.19-1.01-.65-1.89-1.36-2.63-.46-.48-1-.85-1.6-1.12C25.32.16,24.66,0,23.97,0,17.68,0,11.4,0,5.12,0c-.17,0-.35,0-.52.03-1.15.12-2.15.58-2.99,1.37-.5.46-.88,1.01-1.16,1.63C.16,3.68,0,4.36,0,5.08,0,11.07,0,17.07,0,23.07c0,.15,0,.29.02.44.03.59.18,1.16.42,1.71.25.57.6,1.08,1.04,1.53.46.47.99.83,1.59,1.09.63.27,1.28.43,1.96.43,3.15,0,6.31,0,9.46,0s6.27,0,9.41,0c.24,0,.49-.02.73-.05,1.06-.16,1.98-.61,2.76-1.35.49-.46.87-1,1.14-1.61.3-.66.45-1.35.45-2.08,0-6.01,0-12.02,0-18.04,0-.32-.02-.64-.08-.96Zm-3.29,15.38c0,1.64-1.33,2.97-2.97,2.97H6.35c-1.64,0-2.97-1.33-2.97-2.97v-10.87c0-1.64,1.33-2.97,2.97-2.97h16.31c1.64,0,2.97,1.33,2.97,2.97v10.87Z"/>
</svg>