<?xml version="1.0" encoding="UTF-8"?>
<svg id="Layer_1" data-name="Layer 1" xmlns="http://www.w3.org/2000/svg" viewBox="0 0 29 28.27">
  <path d="m14.5,28.27c-3.15,0-6.31,0-9.46,0-.68,0-1.34-.15-1.96-.43-.6-.26-1.13-.63-1.59-1.09-.44-.45-.79-.96-1.04-1.53-.24-.54-.39-1.11-.42-1.71,0-.15-.02-.29-.02-.44C0,17.07,0,11.07,0,5.08c0-.71.16-1.4.45-2.05.28-.62.66-1.17,1.16-1.63C2.45.61,3.45.14,4.6.03c.17-.02.35-.03.52-.03C11.4,0,17.68,0,23.97,0c.69,0,1.36.16,1.99.44.61.27,1.14.64,1.6,1.12.71.74,1.17,1.62,1.36,2.63.06.32.08.64.08.96,0,6.01,0,12.02,0,18.04,0,.73-.16,1.42-.45,2.08-.28.61-.66,1.15-1.14,1.61-.78.73-1.7,1.19-2.76,1.35-.24.04-.49.05-.73.05-3.14,0-6.27,0-9.41,0Zm-1.64-15.19s.01-.02.02-.02c.01-.01.03-.02.04-.03.41-.31.7-.7.89-1.17.23-.58.28-1.17.18-1.78-.12-.76-.46-1.4-1.08-1.89-.46-.36-.98-.59-1.54-.74-.65-.18-1.31-.23-1.98-.23-.94,0-1.88.01-2.82.02-.41,0-.81.02-1.22.03-.19,0-.22.04-.22.23,0,.03,0,.05,0,.08,0,4.03,0,8.07,0,12.1,0,.04,0,.09,0,.13,0,.12.05.16.17.16.14,0,.28,0,.42,0,.59.01,1.17.04,1.76.04.6,0,1.21,0,1.81,0,.6,0,1.21-.05,1.8-.18.69-.15,1.35-.39,1.94-.78.6-.4,1.06-.91,1.35-1.58.22-.5.29-1.02.28-1.56-.02-.57-.16-1.1-.44-1.59-.26-.46-.64-.8-1.08-1.09-.09-.06-.18-.11-.28-.17Zm5.78,2.78c.08,0,.13,0,.18,0,.73,0,1.46,0,2.19,0,1.13,0,2.25.03,3.38-.07.17-.02.21-.04.23-.21.02-.24.04-.47.06-.71.04-.66,0-1.3-.2-1.94-.2-.64-.52-1.22-.98-1.7-.58-.61-1.32-.92-2.14-1.05-.41-.06-.83-.07-1.24-.03-.54.05-1.07.18-1.56.42-1,.49-1.7,1.28-2.15,2.29-.41.93-.55,1.91-.47,2.92.05.69.21,1.35.51,1.97.42.86,1.06,1.52,1.93,1.94.67.33,1.4.45,2.14.48.46.02.93,0,1.39-.04.63-.07,1.24-.22,1.82-.47.15-.06.2-.16.2-.31,0-.59,0-1.19,0-1.78,0-.05-.02-.09-.03-.14-.2.07-.39.15-.58.21-.62.19-1.25.26-1.89.26-.4,0-.8-.04-1.19-.15-.7-.2-1.2-.63-1.46-1.32-.07-.18-.11-.36-.13-.56Z"/>
  <path d="m7.76,17.72v-3.2s.08,0,.12,0c.68,0,1.36,0,2.04.02.37,0,.73.08,1.07.22.49.19.76.56.85,1.07.07.37.03.72-.16,1.05-.2.34-.5.54-.86.67-.33.12-.67.18-1.02.21-.65.05-1.3.01-1.94-.01-.03,0-.06,0-.1-.01Z"/>
  <path d="m7.76,9.52c.09,0,.18-.01.27-.01.42,0,.85,0,1.27,0,.38,0,.75.05,1.11.17.44.14.79.4.93.86.17.56.09,1.09-.28,1.56-.05.07-.11.13-.17.19-.04.04-.08.06-.13.05-.33-.07-.67-.07-1-.07-.62,0-1.24,0-1.86-.01-.04,0-.08,0-.13,0v-2.7Z"/>
  <path d="m22.16,13.93c-.1,0-.2.02-.29.02-.78,0-1.56,0-2.33.01-.25,0-.49,0-.74,0-.04,0-.09,0-.15,0,0-.06.01-.12.03-.17.08-.36.23-.69.47-.97.28-.31.63-.5,1.04-.56.29-.04.57-.03.85.05.66.2,1.13.83,1.13,1.52,0,.03,0,.05,0,.1Z"/>
</svg>